<?xml version="1.0" standalone="no"?>
<!DOCTYPE svg PUBLIC "-//W3C//DTD SVG 20010904//EN"
 "http://www.w3.org/TR/2001/REC-SVG-20010904/DTD/svg10.dtd">
<svg version="1.0" xmlns="http://www.w3.org/2000/svg"
 width="360.000000pt" height="360.000000pt" viewBox="0 0 360.000000 360.000000"
 preserveAspectRatio="xMidYMid meet">

<g transform="translate(0.000000,360.000000) scale(0.100000,-0.100000)"
fill="#ffffff" stroke="none">
<path d="M1570 3080 c-515 -94 -924 -489 -1036 -1002 -25 -114 -30 -332 -10
-466 30 -205 113 -412 231 -577 59 -83 192 -225 210 -225 6 0 93 83 194 184
l183 183 -69 69 c-156 157 -233 341 -233 559 0 219 78 403 237 556 159 153
333 222 568 222 253 0 463 -88 653 -275 l63 -62 185 185 185 184 -110 107
c-197 190 -361 278 -641 345 -148 35 -454 42 -610 13z"/>
<path d="M1928 1603 c-137 -136 -248 -248 -248 -250 0 -2 180 -3 400 -3 220 0
400 -2 400 -6 0 -3 -18 -31 -39 -63 -51 -75 -142 -158 -218 -198 -185 -99
-502 -99 -716 -1 l-68 32 -192 -192 c-222 -222 -218 -189 -32 -282 204 -101
379 -140 636 -140 291 0 497 57 704 195 186 123 358 340 445 559 61 152 82
255 87 434 l6 162 -459 0 -459 0 -247 -247z"/>
</g>
</svg>
